{
	"asset":{
		"generator":"Khronos glTF Blender I/O v3.5.30",
		"version":"2.0"
	},
	"scene":0,
	"scenes":[
		{
			"name":"Scene",
			"nodes":[
				7
			]
		}
	],
	"nodes":[
		{
			"mesh":0,
			"name":"pillarSmallAEnd8_lambert1_0"
		},
		{
			"mesh":1,
			"name":"pillarSmallAEnd8_pillarMAT_0"
		},
		{
			"mesh":2,
			"name":"pillarSmallAEnd8_wallMAT_0"
		},
		{
			"mesh":3,
			"name":"pillarSmallAEnd8_windowMAT_0"
		},
		{
			"children":[
				0,
				1,
				2,
				3
			],
			"name":"pillarSmallAEnd8",
			"translation":[
				0,
				100,
				0
			]
		},
		{
			"children":[
				4
			],
			"name":"RootNode"
		},
		{
			"children":[
				5
			],
			"name":"8f93d7f7eede405e88d8dcea85360407.fbx",
			"rotation":[
				0.70710688829422,
				0,
				0,
				0.7071066498756409
			]
		},
		{
			"children":[
				6
			],
			"name":"Sketchfab_model",
			"rotation":[
				-0.70710688829422,
				0,
				0,
				0.7071066498756409
			]
		}
	],
	"materials":[
		{
			"doubleSided":true,
			"name":"lambert1",
			"pbrMetallicRoughness":{
				"baseColorTexture":{
					"index":0
				},
				"metallicFactor":0,
				"roughnessFactor":0.6000000238418579
			}
		},
		{
			"doubleSided":true,
			"name":"pillarMAT",
			"pbrMetallicRoughness":{
				"baseColorTexture":{
					"index":1
				},
				"metallicFactor":0,
				"roughnessFactor":0.8858435750007629
			}
		},
		{
			"doubleSided":true,
			"name":"wallMAT",
			"pbrMetallicRoughness":{
				"baseColorTexture":{
					"index":2
				},
				"metallicFactor":0,
				"roughnessFactor":0.9018884301185608
			}
		},
		{
			"doubleSided":true,
			"name":"windowMAT",
			"pbrMetallicRoughness":{
				"baseColorTexture":{
					"index":3
				},
				"metallicFactor":0,
				"roughnessFactor":0.9207483530044556
			}
		}
	],
	"meshes":[
		{
			"name":"pillarSmallAEnd8_lambert1_0",
			"primitives":[
				{
					"attributes":{
						"POSITION":0,
						"TEXCOORD_0":1,
						"NORMAL":2
					},
					"indices":3,
					"material":0
				}
			]
		},
		{
			"name":"pillarSmallAEnd8_pillarMAT_0",
			"primitives":[
				{
					"attributes":{
						"POSITION":4,
						"TEXCOORD_0":5,
						"NORMAL":6
					},
					"indices":7,
					"material":1
				}
			]
		},
		{
			"name":"pillarSmallAEnd8_wallMAT_0",
			"primitives":[
				{
					"attributes":{
						"POSITION":8,
						"TEXCOORD_0":9,
						"NORMAL":10
					},
					"indices":11,
					"material":2
				}
			]
		},
		{
			"name":"pillarSmallAEnd8_windowMAT_0",
			"primitives":[
				{
					"attributes":{
						"POSITION":12,
						"TEXCOORD_0":13,
						"NORMAL":14
					},
					"indices":15,
					"material":3
				}
			]
		}
	],
	"textures":[
		{
			"sampler":0,
			"source":0
		},
		{
			"sampler":0,
			"source":1
		},
		{
			"sampler":0,
			"source":2
		},
		{
			"sampler":0,
			"source":3
		}
	],
	"images":[
		{
			"mimeType":"image/png",
			"name":"lambert1_baseColor",
			"uri":"lambert1_baseColor.png"
		},
		{
			"mimeType":"image/png",
			"name":"pillarMAT_baseColor",
			"uri":"pillarMAT_baseColor.png"
		},
		{
			"mimeType":"image/png",
			"name":"wallMAT_baseColor",
			"uri":"wallMAT_baseColor.png"
		},
		{
			"mimeType":"image/png",
			"name":"windowMAT_baseColor",
			"uri":"windowMAT_baseColor.png"
		}
	],
	"accessors":[
		{
			"bufferView":0,
			"componentType":5126,
			"count":2641,
			"max":[
				700,
				800,
				225
			],
			"min":[
				-225,
				-1.52587890625e-05,
				-808.4852905273438
			],
			"type":"VEC3"
		},
		{
			"bufferView":1,
			"componentType":5126,
			"count":2641,
			"type":"VEC2"
		},
		{
			"bufferView":2,
			"componentType":5126,
			"count":2641,
			"type":"VEC3"
		},
		{
			"bufferView":3,
			"componentType":5123,
			"count":4167,
			"type":"SCALAR"
		},
		{
			"bufferView":4,
			"componentType":5126,
			"count":17847,
			"max":[
				700,
				1000,
				300
			],
			"min":[
				-300.0000305175781,
				-1.3732910701946821e-06,
				-900
			],
			"type":"VEC3"
		},
		{
			"bufferView":5,
			"componentType":5126,
			"count":17847,
			"type":"VEC2"
		},
		{
			"bufferView":6,
			"componentType":5126,
			"count":17847,
			"type":"VEC3"
		},
		{
			"bufferView":7,
			"componentType":5123,
			"count":32280,
			"type":"SCALAR"
		},
		{
			"bufferView":8,
			"componentType":5126,
			"count":141,
			"max":[
				601.1666259765625,
				850,
				200
			],
			"min":[
				-201.1666259765625,
				-5.7220458984375e-06,
				-801.1666259765625
			],
			"type":"VEC3"
		},
		{
			"bufferView":9,
			"componentType":5126,
			"count":141,
			"type":"VEC2"
		},
		{
			"bufferView":10,
			"componentType":5126,
			"count":141,
			"type":"VEC3"
		},
		{
			"bufferView":11,
			"componentType":5123,
			"count":387,
			"type":"SCALAR"
		},
		{
			"bufferView":12,
			"componentType":5126,
			"count":684,
			"max":[
				611.8333740234375,
				750,
				125
			],
			"min":[
				-211.833251953125,
				56.66777038574219,
				-811.833251953125
			],
			"type":"VEC3"
		},
		{
			"bufferView":13,
			"componentType":5126,
			"count":684,
			"type":"VEC2"
		},
		{
			"bufferView":14,
			"componentType":5126,
			"count":684,
			"type":"VEC3"
		},
		{
			"bufferView":15,
			"componentType":5123,
			"count":1236,
			"type":"SCALAR"
		}
	],
	"bufferViews":[
		{
			"buffer":0,
			"byteLength":31692,
			"byteOffset":0,
			"target":34962
		},
		{
			"buffer":0,
			"byteLength":21128,
			"byteOffset":31692,
			"target":34962
		},
		{
			"buffer":0,
			"byteLength":31692,
			"byteOffset":52820,
			"target":34962
		},
		{
			"buffer":0,
			"byteLength":8334,
			"byteOffset":84512,
			"target":34963
		},
		{
			"buffer":0,
			"byteLength":214164,
			"byteOffset":92848,
			"target":34962
		},
		{
			"buffer":0,
			"byteLength":142776,
			"byteOffset":307012,
			"target":34962
		},
		{
			"buffer":0,
			"byteLength":214164,
			"byteOffset":449788,
			"target":34962
		},
		{
			"buffer":0,
			"byteLength":64560,
			"byteOffset":663952,
			"target":34963
		},
		{
			"buffer":0,
			"byteLength":1692,
			"byteOffset":728512,
			"target":34962
		},
		{
			"buffer":0,
			"byteLength":1128,
			"byteOffset":730204,
			"target":34962
		},
		{
			"buffer":0,
			"byteLength":1692,
			"byteOffset":731332,
			"target":34962
		},
		{
			"buffer":0,
			"byteLength":774,
			"byteOffset":733024,
			"target":34963
		},
		{
			"buffer":0,
			"byteLength":8208,
			"byteOffset":733800,
			"target":34962
		},
		{
			"buffer":0,
			"byteLength":5472,
			"byteOffset":742008,
			"target":34962
		},
		{
			"buffer":0,
			"byteLength":8208,
			"byteOffset":747480,
			"target":34962
		},
		{
			"buffer":0,
			"byteLength":2472,
			"byteOffset":755688,
			"target":34963
		}
	],
	"samplers":[
		{
			"magFilter":9729,
			"minFilter":9987
		}
	],
	"buffers":[
		{
			"byteLength":758160,
			"uri":"Arcade.bin"
		}
	]
}
