{
  "accessors": [
    {
      "bufferView": 2,
      "componentType": 5126,
      "count": 65532,
      "max": [
        0.00020948052406311035,
        0.27207672595977783,
        0.07917380332946777
      ],
      "min": [
        -2.4312422275543213,
        0.23839883506298065,
        -0.22373133897781372
      ],
      "type": "VEC3"
    },
    {
      "bufferView": 2,
      "byteOffset": 786384,
      "componentType": 5126,
      "count": 65532,
      "max": [
        1.0,
        1.0,
        1.0
      ],
      "min": [
        -1.0,
        -1.0,
        -1.0
      ],
      "type": "VEC3"
    },
    {
      "bufferView": 3,
      "componentType": 5126,
      "count": 65532,
      "max": [
        0.9913787245750427,
        1.0,
        1.0,
        -1.0
      ],
      "min": [
        -0.9913613796234131,
        -1.0,
        -1.0,
        -1.0
      ],
      "type": "VEC4"
    },
    {
      "bufferView": 1,
      "componentType": 5126,
      "count": 65532,
      "max": [
        0.9894227981567383,
        0.9076945781707764
      ],
      "min": [
        0.012081466615200043,
        0.010358870029449463
      ],
      "type": "VEC2"
    },
    {
      "bufferView": 1,
      "byteOffset": 524256,
      "componentType": 5126,
      "count": 65532,
      "max": [
        0.9894227981567383,
        0.9076945781707764
      ],
      "min": [
        0.012081466615200043,
        0.010358870029449463
      ],
      "type": "VEC2"
    },
    {
      "bufferView": 1,
      "byteOffset": 1048512,
      "componentType": 5126,
      "count": 65532,
      "max": [
        0.9894227981567383,
        0.9076945781707764
      ],
      "min": [
        0.012081466615200043,
        0.010358870029449463
      ],
      "type": "VEC2"
    },
    {
      "bufferView": 1,
      "byteOffset": 1572768,
      "componentType": 5126,
      "count": 65532,
      "max": [
        0.9894227981567383,
        0.9076945781707764
      ],
      "min": [
        0.012081466615200043,
        0.010358870029449463
      ],
      "type": "VEC2"
    },
    {
      "bufferView": 1,
      "byteOffset": 2097024,
      "componentType": 5126,
      "count": 65532,
      "max": [
        0.9894227981567383,
        0.9076945781707764
      ],
      "min": [
        0.012081466615200043,
        0.010358870029449463
      ],
      "type": "VEC2"
    },
    {
      "bufferView": 0,
      "componentType": 5125,
      "count": 376560,
      "type": "SCALAR"
    },
    {
      "bufferView": 2,
      "byteOffset": 1572768,
      "componentType": 5126,
      "count": 65532,
      "max": [
        2.4311442375183105,
        0.3155130445957184,
        0.22371411323547363
      ],
      "min": [
        -2.4279041290283203,
        0.2372775822877884,
        -0.22373151779174805
      ],
      "type": "VEC3"
    },
    {
      "bufferView": 2,
      "byteOffset": 2359152,
      "componentType": 5126,
      "count": 65532,
      "max": [
        1.0,
        1.0,
        1.0
      ],
      "min": [
        -1.0,
        -1.0,
        -1.0
      ],
      "type": "VEC3"
    },
    {
      "bufferView": 3,
      "byteOffset": 1048512,
      "componentType": 5126,
      "count": 65532,
      "max": [
        0.9913787245750427,
        1.0,
        1.0,
        1.0
      ],
      "min": [
        -0.9997912049293518,
        -1.0,
        -1.0,
        -1.0
      ],
      "type": "VEC4"
    },
    {
      "bufferView": 1,
      "byteOffset": 2621280,
      "componentType": 5126,
      "count": 65532,
      "max": [
        0.9986780881881714,
        0.9987676739692688
      ],
      "min": [
        0.0012323063565418124,
        0.0013445615768432617
      ],
      "type": "VEC2"
    },
    {
      "bufferView": 1,
      "byteOffset": 3145536,
      "componentType": 5126,
      "count": 65532,
      "max": [
        0.9986780881881714,
        0.9987676739692688
      ],
      "min": [
        0.0012323063565418124,
        0.0013445615768432617
      ],
      "type": "VEC2"
    },
    {
      "bufferView": 1,
      "byteOffset": 3669792,
      "componentType": 5126,
      "count": 65532,
      "max": [
        0.9986780881881714,
        0.9987676739692688
      ],
      "min": [
        0.0012323063565418124,
        0.0013445615768432617
      ],
      "type": "VEC2"
    },
    {
      "bufferView": 1,
      "byteOffset": 4194048,
      "componentType": 5126,
      "count": 65532,
      "max": [
        0.9986780881881714,
        0.9987676739692688
      ],
      "min": [
        0.0012323063565418124,
        0.0013445615768432617
      ],
      "type": "VEC2"
    },
    {
      "bufferView": 1,
      "byteOffset": 4718304,
      "componentType": 5126,
      "count": 65532,
      "max": [
        0.9986780881881714,
        0.9987676739692688
      ],
      "min": [
        0.0012323063565418124,
        0.0013445615768432617
      ],
      "type": "VEC2"
    },
    {
      "bufferView": 0,
      "byteOffset": 1506240,
      "componentType": 5125,
      "count": 307032,
      "type": "SCALAR"
    },
    {
      "bufferView": 2,
      "byteOffset": 3145536,
      "componentType": 5126,
      "count": 65532,
      "max": [
        2.4313457012176514,
        0.8773853778839111,
        0.3436082601547241
      ],
      "min": [
        -0.00038942694664001465,
        -0.8773849010467529,
        -0.3436084985733032
      ],
      "type": "VEC3"
    },
    {
      "bufferView": 2,
      "byteOffset": 3931920,
      "componentType": 5126,
      "count": 65532,
      "max": [
        1.0,
        1.0,
        1.0
      ],
      "min": [
        -1.0,
        -1.0,
        -1.0
      ],
      "type": "VEC3"
    },
    {
      "bufferView": 3,
      "byteOffset": 2097024,
      "componentType": 5126,
      "count": 65532,
      "max": [
        1.0,
        1.0,
        1.0,
        1.0
      ],
      "min": [
        -1.0,
        -1.0,
        -1.0,
        -1.0
      ],
      "type": "VEC4"
    },
    {
      "bufferView": 1,
      "byteOffset": 5242560,
      "componentType": 5126,
      "count": 65532,
      "max": [
        0.9987676739692688,
        0.9987676739692688
      ],
      "min": [
        0.0012323035625740886,
        0.001355588436126709
      ],
      "type": "VEC2"
    },
    {
      "bufferView": 1,
      "byteOffset": 5766816,
      "componentType": 5126,
      "count": 65532,
      "max": [
        0.9987676739692688,
        0.9987676739692688
      ],
      "min": [
        0.0012323035625740886,
        0.001355588436126709
      ],
      "type": "VEC2"
    },
    {
      "bufferView": 1,
      "byteOffset": 6291072,
      "componentType": 5126,
      "count": 65532,
      "max": [
        0.9987676739692688,
        0.9987676739692688
      ],
      "min": [
        0.0012323035625740886,
        0.001355588436126709
      ],
      "type": "VEC2"
    },
    {
      "bufferView": 1,
      "byteOffset": 6815328,
      "componentType": 5126,
      "count": 65532,
      "max": [
        0.9987676739692688,
        0.9987676739692688
      ],
      "min": [
        0.0012323035625740886,
        0.001355588436126709
      ],
      "type": "VEC2"
    },
    {
      "bufferView": 1,
      "byteOffset": 7339584,
      "componentType": 5126,
      "count": 65532,
      "max": [
        0.9987676739692688,
        0.9987676739692688
      ],
      "min": [
        0.0012323035625740886,
        0.001355588436126709
      ],
      "type": "VEC2"
    },
    {
      "bufferView": 0,
      "byteOffset": 2734368,
      "componentType": 5125,
      "count": 281679,
      "type": "SCALAR"
    },
    {
      "bufferView": 2,
      "byteOffset": 4718304,
      "componentType": 5126,
      "count": 57164,
      "max": [
        2.431166172027588,
        0.8773849010467529,
        0.3436084985733032
      ],
      "min": [
        -2.4313457012176514,
        -0.8773853778839111,
        -0.3436082601547241
      ],
      "type": "VEC3"
    },
    {
      "bufferView": 2,
      "byteOffset": 5404272,
      "componentType": 5126,
      "count": 57164,
      "max": [
        1.0,
        1.0,
        1.0
      ],
      "min": [
        -1.0,
        -1.0,
        -1.0
      ],
      "type": "VEC3"
    },
    {
      "bufferView": 3,
      "byteOffset": 3145536,
      "componentType": 5126,
      "count": 57164,
      "max": [
        1.0,
        1.0,
        1.0,
        1.0
      ],
      "min": [
        -1.0,
        -1.0,
        -1.0,
        -1.0
      ],
      "type": "VEC4"
    },
    {
      "bufferView": 1,
      "byteOffset": 7863840,
      "componentType": 5126,
      "count": 57164,
      "max": [
        0.9987677335739136,
        0.9987676739692688
      ],
      "min": [
        0.0012323007686063647,
        0.0012825727462768555
      ],
      "type": "VEC2"
    },
    {
      "bufferView": 1,
      "byteOffset": 8321152,
      "componentType": 5126,
      "count": 57164,
      "max": [
        0.9987677335739136,
        0.9987676739692688
      ],
      "min": [
        0.0012323007686063647,
        0.0012825727462768555
      ],
      "type": "VEC2"
    },
    {
      "bufferView": 1,
      "byteOffset": 8778464,
      "componentType": 5126,
      "count": 57164,
      "max": [
        0.9987677335739136,
        0.9987676739692688
      ],
      "min": [
        0.0012323007686063647,
        0.0012825727462768555
      ],
      "type": "VEC2"
    },
    {
      "bufferView": 1,
      "byteOffset": 9235776,
      "componentType": 5126,
      "count": 57164,
      "max": [
        0.9987677335739136,
        0.9987676739692688
      ],
      "min": [
        0.0012323007686063647,
        0.0012825727462768555
      ],
      "type": "VEC2"
    },
    {
      "bufferView": 1,
      "byteOffset": 9693088,
      "componentType": 5126,
      "count": 57164,
      "max": [
        0.9987677335739136,
        0.9987676739692688
      ],
      "min": [
        0.0012323007686063647,
        0.0012825727462768555
      ],
      "type": "VEC2"
    },
    {
      "bufferView": 0,
      "byteOffset": 3861084,
      "componentType": 5125,
      "count": 239268,
      "type": "SCALAR"
    }
  ],
  "asset": {
    "extras": {
      "author": "@blue.blender.print (https://sketchfab.com/arobaco)",
      "license": "CC-BY-SA-4.0 (http://creativecommons.org/licenses/by-sa/4.0/)",
      "source": "https://sketchfab.com/3d-models/science-fiction-tramtrain-bridge-c275ab6308fb49958243cfe2112c9aba",
      "title": "Science Fiction Tram/Train Bridge."
    },
    "generator": "Sketchfab-15.22.0",
    "version": "2.0"
  },
  "bufferViews": [
    {
      "buffer": 0,
      "byteLength": 4818156,
      "name": "floatBufferViews",
      "target": 34963
    },
    {
      "buffer": 0,
      "byteLength": 10150400,
      "byteOffset": 4818156,
      "byteStride": 8,
      "name": "floatBufferViews",
      "target": 34962
    },
    {
      "buffer": 0,
      "byteLength": 6090240,
      "byteOffset": 14968556,
      "byteStride": 12,
      "name": "floatBufferViews",
      "target": 34962
    },
    {
      "buffer": 0,
      "byteLength": 4060160,
      "byteOffset": 21058796,
      "byteStride": 16,
      "name": "floatBufferViews",
      "target": 34962
    }
  ],
  "buffers": [
    {
      "byteLength": 25118956,
      "uri": "e.bin"
    }
  ],
  "extensionsUsed": [
    "KHR_materials_emissive_strength"
  ],
  "images": [
    {
      "uri": "textures/bridgeUV_baseColor.jpeg"
    },
    {
      "uri": "textures/bridgeUV_metallicRoughness.png"
    },
    {
      "uri": "textures/bridgeUV_emissive.jpeg"
    },
    {
      "uri": "textures/bridgeUV_normal.jpeg"
    }
  ],
  "materials": [
    {
      "doubleSided": true,
      "emissiveFactor": [
        1.0,
        1.0,
        1.0
      ],
      "emissiveTexture": {
        "index": 2,
        "texCoord": 2
      },
      "extensions": {
        "KHR_materials_emissive_strength": {
          "emissiveStrength": 10.0
        }
      },
      "name": "bridgeUV",
      "normalTexture": {
        "index": 3,
        "texCoord": 3
      },
      "pbrMetallicRoughness": {
        "baseColorTexture": {
          "index": 0
        },
        "metallicRoughnessTexture": {
          "index": 1,
          "texCoord": 1
        }
      }
    }
  ],
  "meshes": [
    {
      "name": "Object_0",
      "primitives": [
        {
          "attributes": {
            "NORMAL": 1,
            "POSITION": 0,
            "TANGENT": 2,
            "TEXCOORD_0": 3,
            "TEXCOORD_1": 4,
            "TEXCOORD_2": 5,
            "TEXCOORD_3": 6,
            "TEXCOORD_4": 7
          },
          "indices": 8,
          "material": 0,
          "mode": 4
        }
      ]
    },
    {
      "name": "Object_1",
      "primitives": [
        {
          "attributes": {
            "NORMAL": 10,
            "POSITION": 9,
            "TANGENT": 11,
            "TEXCOORD_0": 12,
            "TEXCOORD_1": 13,
            "TEXCOORD_2": 14,
            "TEXCOORD_3": 15,
            "TEXCOORD_4": 16
          },
          "indices": 17,
          "material": 0,
          "mode": 4
        }
      ]
    },
    {
      "name": "Object_2",
      "primitives": [
        {
          "attributes": {
            "NORMAL": 19,
            "POSITION": 18,
            "TANGENT": 20,
            "TEXCOORD_0": 21,
            "TEXCOORD_1": 22,
            "TEXCOORD_2": 23,
            "TEXCOORD_3": 24,
            "TEXCOORD_4": 25
          },
          "indices": 26,
          "material": 0,
          "mode": 4
        }
      ]
    },
    {
      "name": "Object_3",
      "primitives": [
        {
          "attributes": {
            "NORMAL": 28,
            "POSITION": 27,
            "TANGENT": 29,
            "TEXCOORD_0": 30,
            "TEXCOORD_1": 31,
            "TEXCOORD_2": 32,
            "TEXCOORD_3": 33,
            "TEXCOORD_4": 34
          },
          "indices": 35,
          "material": 0,
          "mode": 4
        }
      ]
    }
  ],
  "nodes": [
    {
      "children": [
        1
      ],
      "matrix": [
        1.0,
        0.0,
        0.0,
        0.0,
        0.0,
        2.220446049250313e-16,
        -1.0,
        0.0,
        0.0,
        1.0,
        2.220446049250313e-16,
        0.0,
        0.0,
        0.0,
        0.0,
        1.0
      ],
      "name": "Sketchfab_model"
    },
    {
      "children": [
        2
      ],
      "name": "root"
    },
    {
      "children": [
        3
      ],
      "matrix": [
        1.0,
        0.0,
        0.0,
        0.0,
        0.0,
        2.220446049250313e-16,
        1.0,
        0.0,
        0.0,
        -1.0,
        2.220446049250313e-16,
        0.0,
        0.0,
        0.0,
        0.0,
        1.0
      ],
      "name": "GLTF_SceneRootNode"
    },
    {
      "children": [
        4,
        5,
        6,
        7
      ],
      "matrix": [
        18.748912811279297,
        0.0,
        0.0,
        0.0,
        0.0,
        18.748912811279297,
        0.0,
        0.0,
        0.0,
        0.0,
        18.748912811279297,
        0.0,
        0.0,
        0.0,
        0.0,
        1.0
      ],
      "name": "bridge_ straight_0"
    },
    {
      "mesh": 0,
      "name": "Object_4"
    },
    {
      "mesh": 1,
      "name": "Object_5"
    },
    {
      "mesh": 2,
      "name": "Object_6"
    },
    {
      "mesh": 3,
      "name": "Object_7"
    }
  ],
  "samplers": [
    {
      "magFilter": 9729,
      "minFilter": 9987,
      "wrapS": 10497,
      "wrapT": 10497
    }
  ],
  "scene": 0,
  "scenes": [
    {
      "name": "Sketchfab_Scene",
      "nodes": [
        0
      ]
    }
  ],
  "textures": [
    {
      "sampler": 0,
      "source": 0
    },
    {
      "sampler": 0,
      "source": 1
    },
    {
      "sampler": 0,
      "source": 2
    },
    {
      "sampler": 0,
      "source": 3
    }
  ]
}
